# File created by Blade
# Date/Time:  Wed Apr 08 17:00:23 2015
#---------------------------------------------------------
:version 1.10
:name HOM
:units
  mass 1.0
  length 1.000000
  angle deg
:documentation
     Acclaim Skeleton File
:root
   axis xyz
   order TX TY TZ RX RY RZ
   position 0.000000 0.000000 0.000000
   orientation 0 0 0
:bonedata
   begin
      id 1
      name Spine_dum
      direction 0.000000 1.000000 0.000000
      length 5.893853
      axis 0.0 0.0 0.0 xyz
   end
   begin
      id 2
      name LeftUpLeg_dum
      direction 1.000000 0.000000 0.000000
      length 3.697939
      axis 0.0 0.0 0.0 xyz
   end
   begin
      id 3
      name RightUpLeg_dum
      direction -1.000000 0.000000 0.000000
      length 3.697939
      axis 0.0 0.0 0.0 xyz
   end
   begin
      id 4
      name Spine
      direction 0.000000 1.000000 0.000000
      length 0.000000
      axis 0.0 0.0 0.0 xyz
      dof rx ry rz
   end
   begin
      id 5
      name Spine_dum1
      direction 0.000000 1.000000 0.000000
      length 16.447146
      axis 0.0 0.0 0.0 xyz
   end
   begin
      id 6
      name Spine_dum2
      direction 0.000000 1.000000 0.000000
      length 10.900383
      axis 0.0 0.0 0.0 xyz
   end
   begin
      id 7
      name Spine_dum3
      direction 0.000000 1.000000 0.000000
      length 10.900383
      axis 0.0 0.0 0.0 xyz
   end
   begin
      id 8
      name Head
      direction 0.000000 1.000000 0.000000
      length 4.527550
      axis 0.0 0.0 0.0 xyz
      dof rx ry rz
   end
   begin
      id 9
      name LeftShoulder
      direction 1.000000 0.000000 0.000000
      length 8.219464
      axis 0.0 0.0 -90.0 xyz
      dof rx ry rz
   end
   begin
      id 10
      name LeftArm
      direction 1.000000 0.000000 0.000000
      length 11.094937
      axis 0.0 0.0 -90.0 xyz
      dof rx ry rz
   end
   begin
      id 11
      name LeftForeArm
      direction 1.000000 0.000000 0.000000
      length 9.103875
      axis 0.0 0.0 -90.0 xyz
      dof ry rz rx
   end
   begin
      id 12
      name LeftHand
      direction 0.000000 0.000000 0.000000
      length 0.000000
      axis 0.0 0.0 -90.0 xyz
      dof rx ry rz
   end
   begin
      id 13
      name LeftHand_dum1
      direction 0.000000 0.000000 0.000000
      length 0.000000
      axis 0.0 0.0 -90.0 xyz
   end
   begin
      id 14
      name LeftHand_dum2
      direction 1.000000 0.000000 0.000000
      length 3.937000
      axis 0.0 0.0 -90.0 xyz
   end
   begin
      id 15
      name LeftHandThumb1
      direction 0.000000 0.000000 1.000000
      length 3.937000
      axis 0.0 0.0 -90.0 xyz
      dof rx rz ry
   end
   begin
      id 16
      name RightShoulder
      direction -1.000000 0.000000 0.000000
      length 8.219464
      axis 0.0 0.0 90.0 xyz
      dof rx ry rz
   end
   begin
      id 17
      name RightArm
      direction -1.000000 0.000000 0.000000
      length 11.094937
      axis 0.0 0.0 90.0 xyz
      dof rx ry rz
   end
   begin
      id 18
      name RightForeArm
      direction -1.000000 0.000000 0.000000
      length 9.103875
      axis 0.0 0.0 90.0 xyz
      dof ry rz rx
   end
   begin
      id 19
      name RightHand
      direction 0.000000 0.000000 0.000000
      length 0.000000
      axis 0.0 0.0 90.0 xyz
      dof rx ry rz
   end
   begin
      id 20
      name RightHand_dum1
      direction 0.000000 0.000000 0.000000
      length 0.000000
      axis 0.0 0.0 90.0 xyz
   end
   begin
      id 21
      name RightHand_dum2
      direction -1.000000 0.000000 0.000000
      length 3.937000
      axis 0.0 0.0 90.0 xyz
   end
   begin
      id 22
      name RightHandThumb1
      direction 0.000000 0.000000 1.000000
      length 3.937000
      axis 0.0 0.0 90.0 xyz
      dof rx rz ry
   end
   begin
      id 23
      name LeftUpLeg
      direction 0.000000 -1.000000 0.000000
      length 16.181467
      axis 0.0 0.0 0.0 xyz
      dof rx ry rz
   end
   begin
      id 24
      name LeftLeg
      direction 0.000000 -1.000000 0.000000
      length 16.501392
      axis 0.0 0.0 0.0 xyz
      dof rx ry rz
   end
   begin
      id 25
      name LeftFoot
      direction 0.000000 -0.258819 0.965926
      length 6.408245
      axis 15.0 0.0 0.0 xyz
      dof rx ry rz
   end
   begin
      id 26
      name LeftToeBase
      direction 0.000000 0.000000 1.000000
      length 2.952750
      axis 0.0 0.0 0.0 xyz
      dof rx ry rz
   end
   begin
      id 27
      name RightUpLeg
      direction 0.000000 -1.000000 0.000000
      length 16.181467
      axis 0.0 0.0 0.0 xyz
      dof rx ry rz
   end
   begin
      id 28
      name RightLeg
      direction 0.000000 -1.000000 0.000000
      length 16.501392
      axis 0.0 0.0 0.0 xyz
      dof rx ry rz
   end
   begin
      id 29
      name RightFoot
      direction 0.000000 -0.258819 0.965926
      length 6.408245
      axis 15.0 0.0 0.0 xyz
      dof rx ry rz
   end
   begin
      id 30
      name RightToeBase
      direction 0.000000 0.000000 1.000000
      length 2.952750
      axis 0.0 0.0 0.0 xyz
      dof rx ry rz
   end
:hierarchy
   begin
      root Spine_dum LeftUpLeg_dum RightUpLeg_dum
      Spine_dum Spine
      LeftUpLeg_dum LeftUpLeg
      RightUpLeg_dum RightUpLeg
      Spine Spine_dum1 Spine_dum2 Spine_dum3
      Spine_dum1 Head
      Spine_dum2 LeftShoulder
      Spine_dum3 RightShoulder
      LeftShoulder LeftArm
      LeftArm LeftForeArm
      LeftForeArm LeftHand
      LeftHand LeftHand_dum1 LeftHand_dum2
      LeftHand_dum1 LeftHandThumb1
      RightShoulder RightArm
      RightArm RightForeArm
      RightForeArm RightHand
      RightHand RightHand_dum1 RightHand_dum2
      RightHand_dum1 RightHandThumb1
      LeftUpLeg LeftLeg
      LeftLeg LeftFoot
      LeftFoot LeftToeBase
      RightUpLeg RightLeg
      RightLeg RightFoot
      RightFoot RightToeBase
   end

# File created by Blade
# Date/Time:  Wed Apr 08 17:00:17 2015
# Frame Rate: 120.000 fps
#------------------------------------------------------
:FULLY-SPECIFIED
:DEGREES
463
root 0.973949 35.685444 3.207153 -43.654874 -83.757747 30.346967
Spine 5.922366 -1.009496 -0.402204
Head 0.291108 5.088429 -20.612576
LeftShoulder 8.809878 -7.101919 27.617101
LeftArm 85.672263 42.180795 -54.058411
LeftForeArm -44.800127 -0.000000 98.378612
LeftHand -36.482488 -0.000000 22.409697
LeftHandThumb1 -26.253704 0.000000 33.147579
RightShoulder -0.359751 -22.030046 -26.271306
RightArm 120.007569 18.629358 118.968227
RightForeArm 69.587433 -0.000000 50.061147
RightHand 17.769529 -0.000000 -22.288245
RightHandThumb1 -24.326973 -0.000000 -32.862282
LeftUpLeg 16.969011 8.825473 5.038578
LeftLeg 10.937494 -0.000000 -0.000000
LeftFoot -15.019125 0.880736 -11.432905
LeftToeBase 9.571895 -0.000000 -0.000000
RightUpLeg 22.417054 -12.782331 -17.276617
RightLeg 2.169062 -0.000000 -0.000000
RightFoot -11.472757 5.802149 20.180073
RightToeBase 14.282790 -0.000000 -0.000000
464
root 0.977662 35.684893 3.207745 -43.550510 -83.742021 30.224193
Spine 5.942038 -1.008679 -0.427267
Head 0.355120 5.062276 -20.562097
LeftShoulder 8.817099 -7.090691 27.616063
LeftArm 85.665367 42.162390 -54.094739
LeftForeArm -44.687197 -0.000000 98.409119
LeftHand -36.505918 0.000000 22.459028
LeftHandThumb1 -26.253704 0.000000 33.147579
RightShoulder -0.324784 -21.954338 -26.324591
RightArm 119.991775 18.722402 118.876763
RightForeArm 69.480375 -0.000000 48.551536
RightHand 17.832993 -0.000000 -22.206584
RightHandThumb1 -24.326973 -0.000000 -32.862282
LeftUpLeg 16.977021 8.815309 5.041547
LeftLeg 10.937525 -0.000000 -0.000000
LeftFoot -15.015514 0.870455 -11.435556
LeftToeBase 9.562386 -0.000000 -0.000000
RightUpLeg 22.423213 -12.774152 -17.272172
RightLeg 2.188909 -0.000000 -0.000000
RightFoot -11.495665 5.783161 20.179797
RightToeBase 14.283882 -0.000000 -0.000000
465
root 0.981644 35.684308 3.208623 -43.447484 -83.724536 30.082113
Spine 5.981063 -0.940559 -0.454559
Head 0.470702 4.981948 -20.469626
LeftShoulder 8.900793 -7.134514 27.635127
LeftArm 85.601079 42.151086 -54.194423
LeftForeArm -44.618690 0.000000 98.437562
LeftHand -36.492449 0.000000 22.475580
LeftHandThumb1 -26.253704 0.000000 33.147579
RightShoulder -0.316272 -21.905342 -26.354905
RightArm 119.953881 18.961155 118.702626
RightForeArm 69.679608 -0.000000 47.051515
RightHand 17.861265 -0.000000 -22.143662
RightHandThumb1 -24.326973 -0.000000 -32.862282
LeftUpLeg 17.005180 8.794186 5.045146
LeftLeg 10.938209 -0.000000 -0.000000
LeftFoot -15.022298 0.856614 -11.434699
LeftToeBase 9.549797 -0.000000 -0.000000
RightUpLeg 22.452359 -12.776661 -17.283032
RightLeg 2.208786 -0.000000 -0.000000
RightFoot -11.495062 5.790481 20.206674
RightToeBase 14.292537 -0.000000 -0.000000
466
root 0.984379 35.684807 3.209548 -43.418415 -83.710439 30.040809
Spine 5.993986 -0.990378 -0.483627
Head 0.513752 4.996169 -20.445860
LeftShoulder 8.832840 -7.126690 27.634396
LeftArm 85.571282 42.163110 -54.245654
LeftForeArm -44.579633 -0.000000 98.454288
LeftHand -36.484634 0.000000 22.491868
LeftHandThumb1 -26.253704 0.000000 33.147579
RightShoulder -0.213349 -21.822918 -26.443379
RightArm 119.886474 19.154839 118.504738
RightForeArm 69.969062 -0.000000 45.623572
RightHand 17.786880 0.000000 -22.176366
RightHandThumb1 -24.326973 -0.000000 -32.862282
LeftUpLeg 17.009131 8.779721 5.039039
LeftLeg 10.938976 -0.000000 -0.000000
LeftFoot -15.023958 0.853147 -11.446768
LeftToeBase 9.586953 -0.000000 -0.000000
RightUpLeg 22.460906 -12.778247 -17.292233
RightLeg 2.215043 -0.000000 -0.000000
RightFoot -11.493105 5.792074 20.210560
RightToeBase 14.254675 -0.000000 -0.000000
467
root 0.988059 35.685175 3.209642 -43.314995 -83.688033 29.921117
Spine 6.008245 -0.995174 -0.518488
Head 0.586040 4.969039 -20.376367
LeftShoulder 8.833871 -7.122212 27.630452
LeftArm 85.553204 42.148207 -54.293810
LeftForeArm -44.533886 -0.000000 98.465372
LeftHand -36.550407 0.000000 22.496590
LeftHandThumb1 -26.253704 0.000000 33.147579
RightShoulder -0.135254 -21.760856 -26.503955
RightArm 119.798187 19.421745 118.280538
RightForeArm 70.231560 0.000000 44.240601
RightHand 17.744114 0.000000 -22.138939
RightHandThumb1 -24.326973 -0.000000 -32.862282
LeftUpLeg 17.007678 8.761091 5.035694
LeftLeg 10.951644 -0.000000 -0.000000
LeftFoot -15.016282 0.842159 -11.446924
LeftToeBase 9.597412 -0.000000 -0.000000
RightUpLeg 22.476400 -12.797015 -17.302334
RightLeg 2.220719 -0.000000 -0.000000
RightFoot -11.488380 5.790877 20.213687
RightToeBase 14.276074 -0.000000 -0.000000
468
root 0.992270 35.685433 3.210887 -43.273886 -83.670623 29.856589
Spine 6.032020 -0.892841 -0.557570
Head 0.689313 4.849880 -20.261331
LeftShoulder 8.922313 -7.157590 27.638764
LeftArm 85.580630 42.125159 -54.326459
LeftForeArm -44.528178 -0.000000 98.437657
LeftHand -36.615456 -0.000000 22.602471
LeftHandThumb1 -26.253704 0.000000 33.147579
RightShoulder -0.147703 -21.720743 -26.501792
RightArm 119.688054 19.687677 118.049471
RightForeArm 70.391228 -0.000000 42.893847
RightHand 17.729578 0.000000 -22.121971
RightHandThumb1 -24.326973 -0.000000 -32.862282
LeftUpLeg 17.017635 8.744719 5.029826
LeftLeg 10.956067 -0.000000 -0.000000
LeftFoot -15.012756 0.846671 -11.437501
LeftToeBase 9.582080 -0.000000 -0.000000
RightUpLeg 22.504454 -12.789020 -17.308526
RightLeg 2.208414 -0.000000 -0.000000
RightFoot -11.489563 5.767472 20.215935
RightToeBase 14.285579 -0.000000 -0.000000
469
root 0.997188 35.685885 3.210542 -43.214906 -83.648688 29.784357
Spine 6.051758 -0.914655 -0.599686
Head 0.726620 4.808853 -20.199891
LeftShoulder 8.877496 -7.149697 27.625586
LeftArm 85.594971 42.112529 -54.344871
LeftForeArm -44.581621 -0.000000 98.422513
LeftHand -36.693103 -0.000000 22.675703
LeftHandThumb1 -26.253704 0.000000 33.147579
RightShoulder -0.025934 -21.640072 -26.578606
RightArm 119.582372 19.873584 117.932589
RightForeArm 70.195338 -0.000000 41.635064
RightHand 17.664120 -0.000000 -22.061051
RightHandThumb1 -24.326973 -0.000000 -32.862282
LeftUpLeg 17.011594 8.726735 5.022637
LeftLeg 10.968135 -0.000000 -0.000000
LeftFoot -15.011709 0.838516 -11.431541
LeftToeBase 9.592583 -0.000000 -0.000000
RightUpLeg 22.516209 -12.820013 -17.326546
RightLeg 2.213426 -0.000000 -0.000000
RightFoot -11.484952 5.777989 20.203827
RightToeBase 14.286202 -0.000000 -0.000000
470
root 1.000296 35.686315 3.211347 -43.191116 -83.636605 29.749586
Spine 6.062736 -0.852799 -0.629833
Head 0.794975 4.722562 -20.130297
LeftShoulder 8.904167 -7.169605 27.605880
LeftArm 85.631484 42.107915 -54.326511
LeftForeArm -44.549660 -0.000000 98.402572
LeftHand -36.712994 -0.000000 22.782197
LeftHandThumb1 -26.253704 0.000000 33.147579
RightShoulder 0.018016 -21.591798 -26.623688
RightArm 119.457083 20.075900 117.791026
RightForeArm 69.782517 0.000000 40.356875
RightHand 17.550294 -0.000000 -21.942896
RightHandThumb1 -24.326973 -0.000000 -32.862282
LeftUpLeg 17.014790 8.701208 5.012944
LeftLeg 10.964760 -0.000000 -0.000000
LeftFoot -15.000629 0.849180 -11.443901
LeftToeBase 9.570013 -0.000000 -0.000000
RightUpLeg 22.537073 -12.829215 -17.336514
RightLeg 2.190469 -0.000000 -0.000000
RightFoot -11.461443 5.776280 20.228723
RightToeBase 14.258844 -0.000000 -0.000000
471
root 1.002942 35.687019 3.210688 -43.155131 -83.626176 29.704381
Spine 6.075387 -0.901894 -0.664132
Head 0.797881 4.742138 -20.095004
LeftShoulder 8.818297 -7.153856 27.586354
LeftArm 85.632178 42.112533 -54.328411
LeftForeArm -44.555239 -0.000000 98.393624
LeftHand -36.740754 -0.000000 22.821076
LeftHandThumb1 -26.253704 0.000000 33.147579
RightShoulder 0.158903 -21.504353 -26.714720
RightArm 119.340034 20.268659 117.632152
RightForeArm 69.378172 -0.000000 39.033519
RightHand 17.544903 -0.000000 -21.746809
RightHandThumb1 -24.326973 -0.000000 -32.862282
LeftUpLeg 17.020244 8.707209 5.018216
LeftLeg 10.961463 -0.000000 -0.000000
LeftFoot -14.986596 0.818684 -11.461410
LeftToeBase 9.605431 -0.000000 -0.000000
RightUpLeg 22.553978 -12.840198 -17.338513
RightLeg 2.173579 -0.000000 -0.000000
RightFoot -11.456985 5.760712 20.202327
RightToeBase 14.272747 -0.000000 -0.000000
472
root 1.007659 35.686981 3.210638 -43.030749 -83.609102 29.580103
Spine 6.078956 -0.895456 -0.695858
Head 0.828387 4.711114 -20.034840
LeftShoulder 8.784789 -7.092729 27.577226
LeftArm 85.677143 42.068320 -54.332415
LeftForeArm -44.690758 0.000000 98.367532
LeftHand -36.809562 -0.000000 22.758510
LeftHandThumb1 -26.253704 0.000000 33.147579
RightShoulder 0.232625 -21.439405 -26.763436
RightArm 119.252821 20.473485 117.444034
RightForeArm 69.162934 -0.000000 37.618924
RightHand 17.455323 -0.000000 -21.628791
RightHandThumb1 -24.326973 -0.000000 -32.862282
LeftUpLeg 17.003416 8.695260 5.017720
LeftLeg 10.968566 -0.000000 -0.000000
LeftFoot -14.996348 0.820371 -11.456046
LeftToeBase 9.619833 -0.000000 -0.000000
RightUpLeg 22.558737 -12.854500 -17.335002
RightLeg 2.163811 -0.000000 -0.000000
RightFoot -11.469108 5.737330 20.181908
RightToeBase 14.294614 -0.000000 -0.000000
473
root 1.012895 35.687017 3.210973 -42.972263 -83.596744 29.514489
Spine 6.089303 -0.845784 -0.727024
Head 0.879025 4.654235 -19.971527
LeftShoulder 8.808643 -7.098502 27.570899
LeftArm 85.658832 42.059647 -54.352937
LeftForeArm -44.653756 -0.000000 98.363905
LeftHand -36.769313 0.000000 22.706290
LeftHandThumb1 -26.253704 0.000000 33.147579
RightShoulder 0.286339 -21.384457 -26.800496
RightArm 119.171177 20.696597 117.233609
RightForeArm 68.997414 -0.000000 36.142779
RightHand 17.225016 0.000000 -21.621624
RightHandThumb1 -24.326973 -0.000000 -32.862282
LeftUpLeg 17.000179 8.683181 5.014225
LeftLeg 10.967414 -0.000000 -0.000000
LeftFoot -14.991456 0.813039 -11.467826
LeftToeBase 9.617198 -0.000000 -0.000000
RightUpLeg 22.572779 -12.843443 -17.329199
RightLeg 2.138297 -0.000000 -0.000000
RightFoot -11.459582 5.712441 20.198617
RightToeBase 14.331101 -0.000000 -0.000000
